<?xml version="1.0" encoding="UTF-8"?>
<svg xmlns="http://www.w3.org/2000/svg" viewBox="0 0 64 64" role="img" aria-label="WiFi Antenna">
  <title>WiFi Antenna</title>
  <g fill="#000000">
    <!-- -� + )�F -->
    <circle cx="32" cy="24" r="7"/>
    <rect x="28.5" y="31" width="7" height="22" rx="1"/>
    <!-- �	B'�Ϲ!�kE'	 -->
    <path fill="none" stroke="#000000" stroke-width="4.5" stroke-linecap="round"
          d="M 24,30 A 10,10 0 0,1 24,18"/>
    <path fill="none" stroke="#000000" stroke-width="4.5" stroke-linecap="round"
          d="M 19,33 A 16,16 0 0,1 19,15"/>
    <path fill="none" stroke="#000000" stroke-width="4.5" stroke-linecap="round"
          d="M 14,36 A 22,22 0 0,1 14,12"/>
    <!-- �	B' -->
    <path fill="none" stroke="#000000" stroke-width="4.5" stroke-linecap="round"
          d="M 40,30 A 10,10 0 0,0 40,18"/>
    <path fill="none" stroke="#000000" stroke-width="4.5" stroke-linecap="round"
          d="M 45,33 A 16,16 0 0,0 45,15"/>
    <path fill="none" stroke="#000000" stroke-width="4.5" stroke-linecap="round"
          d="M 50,36 A 22,22 0 0,0 50,12"/>
  </g>
</svg>
